<?xml version="1.0" encoding="UTF-8"?>
<svg width="87px" height="86px" viewBox="0 0 87 86" version="1.1" xmlns="http://www.w3.org/2000/svg" xmlns:xlink="http://www.w3.org/1999/xlink">
    <!-- Generator: Sketch 53 (72520) - https://sketchapp.com -->
    <title>iconfinder_041_cat_kitty_pussy_photo__footage_meow_mimimi_2090339 (1)</title>
    <desc>Created with Sketch.</desc>
    <g id="Page-1" stroke="none" stroke-width="1" fill="none" fill-rule="evenodd">
        <g id="iconfinder_041_cat_kitty_pussy_photo__footage_meow_mimimi_2090339-(1)" fill-rule="nonzero">
            <path d="M40.7,85 C40.6,82.7 40.3,80.4 39.8,78.2 C39.8,78.2 36.2,55.3 39,43 C39,43 36.6,36.4 35.9,35.3 L30.9,35.2 C15.8,35.2 1,47.5 1,62.6 L1,66.3 C1,76.6 9.4,85 19.7,85 L40.7,85 Z" id="Path" fill="#E1E7F5"></path>
            <g id="Group" opacity="0.5" transform="translate(1.000000, 35.000000)" fill="#FFFFFF">
                <path d="M29.9,4 L34.9,4.1 C35.4,4.9 35.6,1.3 34.9,0.3 L29.9,0.2 C14.8,0.2 0,12.5 0,27.6 L0,31.4 C0,16.2 14.8,4 29.9,4 Z" id="Path"></path>
            </g>
            <path d="M1,64.8 C0.4,64.8 0,64.4 0,63.8 L0,62.6 C0,50 10,38.4 23.8,35 C24.4,34.9 24.9,35.2 25,35.8 C25.1,36.4 24.8,36.9 24.2,37 L24.2,37 C11.4,40.1 2,50.9 2,62.6 L2,63.8 C2,64.4 1.6,64.8 1,64.8 Z" id="Path" fill="#6D6DAA"></path>
            <g id="Group" opacity="0.5" transform="translate(12.000000, 69.000000)" fill="#FFFFFF">
                <path d="M0.8,0.5 C0.8,2.6 2.5,4.3 4.5,4.3 L9.9,4.3 C13.1,4.3 15.8,6.9 15.8,10.2 C15.8,10.8 15.7,11.3 15.6,11.8 C14.9,9.3 12.6,7.5 9.9,7.5 L6.4,7.5 C2.4,7.5 -7.10542736e-15,5.1 -7.10542736e-15,1.1 L-7.10542736e-15,0.6 L0.8,0.5 Z" id="Path"></path>
            </g>
            <path d="M64.3,8.9 C68.3,4.4 74.7,1.5 77,1.7 C80.5,2 79.4,14.7 79.1,22.3 C76.8,15.7 71.2,10.6 64.3,8.9 Z" id="Path" fill="#E6C5CC"></path>
            <path d="M68.7,10.8 C70.4,8.9 73,7.7 74,7.8 C75.5,7.9 75,13.2 74.9,16.4 C73.9,13.6 71.6,11.5 68.7,10.8 Z" id="Path" fill="#D49DA7"></path>
            <path d="M34.7,21.4 C34.4,14 33.7,2.2 36.8,1.8 C39.1,1.6 45.5,4.4 49.4,8.9 C42,10.6 37,15.3 34.7,21.4 Z" id="Path" fill="#E6C5CC"></path>
            <path d="M39.1,15.4 C39,12.5 38.7,7.9 39.9,7.8 C40.8,7.7 43.2,8.8 44.8,10.5 C42.2,11.1 40,12.9 39.1,15.4 Z" id="Path" fill="#D49DA7"></path>
            <path d="M56.7,8 C72,8 80.4,18.1 80.4,30.5 C80.4,42.9 69.8,53 56.7,53 C43.6,53 33,42.9 33,30.5 C33,18.1 41,8 56.7,8 Z" id="Path" fill="#E1E7F5"></path>
            <path d="M56.7,37 C72,37 76,33 80.4,30.5 C80.4,42.9 69.8,53 56.7,53 C43.6,53 33,42.9 33,30.5 C37,34 41,37 56.7,37 Z" id="Path" fill="#FFFFFF"></path>
            <path d="M57,27 C65.4,27 70,31.5 70,37 C70,42.5 64.2,47 57,47 C49.8,47 44,42.5 44,37 C44,31.5 48.4,27 57,27 Z" id="Path" fill="#FFFFFF"></path>
            <g id="Group" opacity="0.3" transform="translate(33.000000, 28.000000)" fill="#6D6DAA">
                <path d="M23.7,21 C36.1,21 46.3,11.9 47.3,0.4 C47.4,1.1 47.4,1.8 47.4,2.5 C47.4,14.9 36.8,25 23.7,25 C10.6,25 0,14.9 0,2.5 C0,1.8 0,1 0.1,0.3 C1.1,11.9 11.3,21 23.7,21 Z" id="Path"></path>
            </g>
            <g id="Group" opacity="0.5" transform="translate(33.000000, 8.000000)" fill="#FFFFFF">
                <path d="M23.7,4 C8.9,4 1,12.9 0.1,24.3 C0,23.7 0,23.1 0,22.5 C0,10.1 8,0 23.7,0 C39,0 47.4,10.1 47.4,22.5 C47.4,23.1 47.4,23.7 47.3,24.4 C46.4,12.9 38.1,4 23.7,4 Z" id="Path"></path>
            </g>
            <path d="M79.1,23.4 C78.7,23.4 78.3,23.1 78.2,22.7 C76,16.3 70.7,11.4 64.1,9.9 C63.6,9.8 63.2,9.2 63.4,8.7 C63.4,8.5 63.5,8.4 63.6,8.3 C67.5,3.8 74.3,0.5 77.2,0.8 C80.9,1.2 80.9,8.7 80.3,19.3 C80.2,20.4 80.2,21.5 80.1,22.5 C80.1,23 79.7,23.4 79.3,23.5 L79.1,23.4 Z M66.1,8.5 C71.2,10.1 75.5,13.6 78.2,18.3 C78.5,13.1 78.8,3.1 76.8,2.9 C75.2,2.6 69.9,4.8 66.1,8.5 Z" id="Shape" fill="#6D6DAA"></path>
            <path d="M34.7,22.4 L34.5,22.4 C34,22.3 33.7,21.9 33.7,21.5 L33.6,20 C33.1,9 33,1.2 36.7,0.8 C39.6,0.5 46.2,3.7 50.2,8.2 C50.6,8.6 50.5,9.2 50.1,9.6 C50,9.7 49.8,9.8 49.7,9.8 C42.9,11.5 38.1,15.6 35.7,21.7 C35.5,22.1 35.1,22.4 34.7,22.4 Z M37.1,2.8 L36.9,2.8 C35.2,3 35.3,12 35.5,17.5 C38.3,13.1 42.5,9.9 47.5,8.4 C43.8,4.8 38.9,2.8 37.1,2.8 L37.1,2.8 Z" id="Shape" fill="#6D6DAA"></path>
            <path d="M85.2,38 L80,38 C79.4,38 79,37.6 79,37 C79,36.4 79.4,36 80,36 L85.2,36 C85.8,36 86.2,36.4 86.2,37 C86.2,37.6 85.8,38 85.2,38 Z" id="Path" fill="#6D6DAA"></path>
            <path d="M86,34 L81,34 C80.4,34 80,33.6 80,33 C80,32.4 80.4,32 81,32 L86,32 C86.6,32 87,32.4 87,33 C87,33.6 86.6,34 86,34 Z" id="Path" fill="#6D6DAA"></path>
            <path d="M83,42 L78,42 C77.4,42 77,41.6 77,41 C77,40.4 77.4,40 78,40 L83,40 C83.6,40 84,40.4 84,41 C84,41.6 83.6,42 83,42 Z" id="Path" fill="#6D6DAA"></path>
            <path d="M33.5,38 L28.3,38 C27.7,38 27.3,37.6 27.3,37 C27.3,36.4 27.7,36 28.3,36 L33.5,36 C34.1,36 34.5,36.4 34.5,37 C34.5,37.6 34.1,38 33.5,38 Z" id="Path" fill="#6D6DAA"></path>
            <path d="M32.5,34 L27.5,34 C26.9,34 26.5,33.6 26.5,33 C26.5,32.4 26.9,32 27.5,32 L32.5,32 C33.1,32 33.5,32.4 33.5,33 C33.5,33.6 33.1,34 32.5,34 Z" id="Path" fill="#6D6DAA"></path>
            <path d="M35.5,42 L30.5,42 C29.9,42 29.5,41.6 29.5,41 C29.5,40.4 29.9,40 30.5,40 L35.5,40 C36.1,40 36.5,40.4 36.5,41 C36.5,41.6 36.1,42 35.5,42 Z" id="Path" fill="#6D6DAA"></path>
            <g id="Group" opacity="0.3" transform="translate(22.000000, 81.000000)" fill="#6D6DAA">
                <path d="M5.3,0 L18.4,0 L18.6,4 L0,4 C2.5,4 4.6,2.4 5.3,0 Z" id="Path"></path>
            </g>
            <path d="M61.5,41.9 C58.5,41.9 56,39.4 56,36.4 C56,35.8 56.4,35.4 57,35.4 C57.6,35.4 58,35.8 58,36.4 C58,38.3 59.6,39.9 61.5,39.9 C63.4,39.9 65,38.3 65,36.4 C65,35.8 65.4,35.4 66,35.4 C66.6,35.4 67,35.8 67,36.4 C67,39.4 64.5,41.9 61.5,41.9 Z" id="Path" fill="#6D6DAA"></path>
            <path d="M52.5,41.9 C49.5,41.9 47,39.4 47,36.4 C47,35.8 47.4,35.4 48,35.4 C48.6,35.4 49,35.8 49,36.4 C49,38.3 50.6,39.9 52.5,39.9 C54.4,39.9 56,38.3 56,36.4 L56,34.1 C56,33.5 56.4,33.1 57,33.1 L57,33.1 C57.6,33.1 58,33.5 58,34.1 L58,36.3 C58,39.4 55.5,41.9 52.5,41.9 Z" id="Path" fill="#6D6DAA"></path>
            <path d="M57,34.1 C58.4,34.1 61.4,30.9 60.6,29.8 C59.8,28.7 54.1,28.7 53.4,29.8 C52.7,30.9 55.6,34.1 57,34.1 Z" id="Path" fill="#FF9797"></path>
            <path d="M57,35.1 C55.5,35.1 53.5,33.2 52.8,31.8 C52.2,31.1 52.2,30.1 52.6,29.2 C52.8,28.9 53.3,28.1 56.1,28 C56.8,28 60.4,27.8 61.4,29.2 C61.9,29.9 61.9,30.9 61.4,31.6 C60.7,33 58.6,35.1 57,35.1 Z M54.3,30.3 C54.5,30.8 54.8,31.3 55.2,31.7 C55.7,32.3 56.3,32.8 57,33.1 C57.7,32.8 58.4,32.4 58.8,31.8 C59.2,31.4 59.5,30.9 59.7,30.4 C57.9,29.9 56.1,29.9 54.3,30.3 L54.3,30.3 Z" id="Shape" fill="#6D6DAA"></path>
            <path d="M57,15 C56.4,15 56,14.6 56,14 L56,8 C56,7.4 56.4,7 57,7 C57.6,7 58,7.4 58,8 L58,14 C58,14.6 57.6,15 57,15 Z" id="Path" fill="#6D6DAA"></path>
            <path d="M53,15 C52.4,15 52,14.6 52,14 L52,8.7 C52,8.1 52.4,7.7 53,7.7 C53.6,7.7 54,8.1 54,8.7 L54,14 C54,14.6 53.6,15 53,15 Z" id="Path" fill="#6D6DAA"></path>
            <path d="M61,15 C60.4,15 60,14.6 60,14 L60,8.7 C60,8.1 60.4,7.7 61,7.7 C61.6,7.7 62,8.1 62,8.7 L62,14 C62,14.6 61.6,15 61,15 Z" id="Path" fill="#6D6DAA"></path>
            <path d="M36.2,42.4 C36.7,56.6 37.8,69.5 39.7,78 L52.1,78 L52.8,72.8 C52.8,72.8 55.3,71.4 61.8,65 C61.5,70.5 61.4,75.6 62.1,79 L73.9,78.8 C76.4,65 78.1,51.4 77,43.7 L76.8,42.8 C72.8,49 64.2,53 56.7,53 C49.8,53 43.1,50.1 38.5,44.9 L36.2,42.4 Z" id="Path" fill="#E1E7F5"></path>
            <path d="M68.7,50.7 C68.7,56.2 63.5,60.7 57.2,60.7 C50.9,60.7 45.7,56.2 45.7,50.7 C48.2,51.8 50.9,53 57.2,53 C63.5,53 66.1,51.2 68.7,50.7 Z" id="Path" fill="#FFFFFF"></path>
            <g id="Group" opacity="0.3" transform="translate(35.000000, 42.000000)" fill="#6D6DAA">
                <path d="M41.8,4.6 C38.9,10.1 29.5,15 21.7,15 C12.9,15 2.3,8.4 0.9,4.2 L1.2,0.2 L3.5,2.9 C8.1,8.1 14.7,11 21.7,11 C29.7,10.8 37.1,6.9 41.8,0.5 L41.8,4.6 Z" id="Path"></path>
            </g>
            <path d="M39.7,77.2 C40.1,79.9 40.7,85 40.7,85 L49.9,85 C51.3,83.9 52.1,80.5 52.3,77.2 C49.1,76.2 43.7,75.2 39.7,77.2 Z" id="Path" fill="#FFFFFF"></path>
            <path d="M62.1,77 C62,79.3 62.9,85 65,85 L73,85 C73.2,82.8 73.7,79.1 74,76.8 C70.6,75.8 67.5,75 62.1,77 Z" id="Path" fill="#FFFFFF"></path>
            <g id="Group" opacity="0.3" transform="translate(23.000000, 54.000000)" fill="#6D6DAA">
                <path d="M16.3,22 L12.2,22 C9.3,22 7,19.7 7,16.8 L7,10 C7,5 5,2 -7.10542736e-15,0 C6,2 8.5,4 13.5,2 C14.4,10.8 15.3,14.4 16.3,22 Z" id="Path"></path>
            </g>
            <path d="M40.7,86 L22,86 C21.4,86 21,85.6 21,85 C21,84.4 21.4,84 22,84 L40.7,84 C41.3,84 41.7,84.4 41.7,85 C41.7,85.6 41.2,86 40.7,86 Z" id="Path" fill="#6D6DAA"></path>
            <g id="Group" opacity="0.3" transform="translate(52.000000, 64.000000)" fill="#6D6DAA">
                <path d="M9.5,1.3 C7.3,3.6 3.2,7.3 0.5,8.3 L0.5,0.2 C3.5,1.2 5.5,1.2 9.5,0.2 L9.5,1.3 Z" id="Path"></path>
            </g>
            <path d="M49.2,86 L40.7,86 C40.1,86 39.7,85.6 39.7,85 C39.4,81.3 38.9,77.5 38.1,73.9 C36.5,65 34.3,52.7 35,42 C35,41.4 35.5,41 36.1,41.1 C36.1,41.1 36.1,41.1 36.1,41.1 C36.7,41.1 37.1,41.6 37,42.2 C37,42.2 37,42.2 37,42.2 C36.4,52.7 38.5,64.8 40.1,73.7 C40.9,78.1 41.5,81.7 41.7,84.2 L49.2,84.2 C49.4,84.2 49.7,84.1 49.8,83.9 C51.9,81.6 51.8,71.3 51.2,65.3 C51.2,64.7 51.6,64.3 52.1,64.2 C52.7,64.2 53.1,64.6 53.2,65.1 C53.4,66.8 54.6,81.6 51.2,85.2 C50.7,85.6 50,86 49.2,86 Z" id="Path" fill="#6D6DAA"></path>
            <path d="M73.2,86 L65.3,86 C64.5,86 63.7,85.6 63.1,85 C60.4,82.1 60.4,72.4 60.6,67.5 L60,68.2 C57.3,70.9 55.3,72.9 53.2,73.7 C52.7,73.9 52.1,73.6 51.9,73.1 C51.7,72.6 52,72 52.5,71.8 C54.3,71.1 56.1,69.3 58.6,66.8 C59.4,66 60.2,65.2 61.1,64.3 C61.5,63.9 62.1,63.9 62.5,64.3 C62.7,64.5 62.8,64.8 62.8,65.1 C62.4,71 62.4,81.3 64.6,83.7 C64.8,83.9 65,84.1 65.3,84.1 L72.2,84.1 C72.3,82.1 72.8,79.3 73.4,75.8 C74.8,67.5 77,55 76,42.5 C76,41.9 76.4,41.5 76.9,41.4 C77.5,41.4 77.9,41.8 78,42.3 C79,55.1 76.8,67.7 75.4,76 C74.8,78.9 74.4,81.9 74.2,84.9 C74.2,85.6 73.7,86 73.2,86 Z" id="Path" fill="#6D6DAA"></path>
            <path d="M56.7,54 C49.5,54 42.6,51 37.8,45.6 C37.1,44.8 36.4,43.9 35.9,43 C33.4,39.3 32.1,35 32.1,30.5 C32,16.2 41.7,7 56.7,7 C71.5,7 81.4,16.4 81.4,30.5 C81.4,35.9 79.4,41.2 75.9,45.3 C71.1,50.9 64.1,54.1 56.7,54 Z M56.7,9 C42.9,9 34,17.4 34,30.5 C34,34.6 35.2,38.6 37.5,41.9 L37.5,41.9 C38,42.7 38.6,43.5 39.3,44.2 C48,53.8 62.9,54.6 72.5,45.9 C73.2,45.3 73.8,44.6 74.4,43.9 C77.6,40.1 79.4,35.4 79.4,30.4 C79.4,17.6 70.3,9 56.7,9 Z" id="Shape" fill="#6D6DAA"></path>
            <path d="M18,85 L22.3,85 C25.6,85 28.3,82.3 28.3,79 C28.3,75.7 25.6,73 22.3,73 L18,73 L18,85 Z" id="Path" fill="#FFFFFF"></path>
            <g id="Group" opacity="0.3" transform="translate(0.000000, 64.000000)" fill="#6D6DAA">
                <path d="M27.9,13 C27.1,15.4 24.8,17 22.2,17 L17.3,17 C8.3,17 0.9,9.7 0.9,0.6 L0.9,4.6 C0.9,13.6 8.2,21 17.3,21 L22.2,21 C25.5,21 28.2,18.3 28.2,15 C28.3,14.3 28.2,13.6 27.9,13 Z" id="Path"></path>
            </g>
            <path d="M22.3,86 L17.4,86 C7.8,86 0,78.2 0,68.6 L0,63.4 C0,62.8 0.4,62.4 1,62.4 C1.6,62.4 2,62.8 2,63.4 L2,68.6 C2,77.1 8.9,84 17.4,84 L22.3,84 C25.1,84 27.3,81.8 27.3,79 C27.3,76.2 25.1,74 22.3,74 L16.8,74 C14.1,74 12,71.8 12,69.2 C12,68.6 12.4,68.2 13,68.2 C13.6,68.2 14,68.6 14,69.2 C14,70.8 15.3,72 16.8,72 L22.3,72 C26.2,72 29.3,75.1 29.3,79 C29.3,82.9 26.1,86 22.3,86 Z" id="Path" fill="#6D6DAA"></path>
            <g id="Group" opacity="0.5" transform="translate(18.000000, 53.000000)" fill="#FFFFFF">
                <path d="M12,15 L12,11 C12,4.9 7.1,0 1,0 L0,0 L0,2 C0,3.1 0.9,4 2,4 L2,4 C8.1,4 12,8.9 12,15 Z" id="Path"></path>
            </g>
            <path d="M39.3,77 L35.3,77 C31.8,77 29,74.2 29,70.7 C29,70.7 29,70.7 29,70.7 L29,64 C29,58.5 24.5,54 19,54 C18.4,54 18,53.6 18,53 C18,52.4 18.4,52 19,52 C25.6,52 31,57.4 31,64 L31,70.7 C31,73.1 32.9,75 35.3,75 L39.3,75 C39.9,75 40.3,75.4 40.3,76 C40.3,76.6 39.8,77 39.3,77 L39.3,77 Z" id="Path" fill="#6D6DAA"></path>
            <path d="M43.6,85.8 L43.5,85.8 C43,85.7 42.6,85.2 42.6,84.7 C42.6,84.7 42.6,84.7 42.6,84.7 L42.9,82.1 C43,81.5 43.5,81.2 44,81.2 C44.6,81.3 44.9,81.8 44.9,82.3 L44.9,82.3 L44.6,84.9 C44.5,85.4 44.1,85.8 43.6,85.8 Z" id="Path" fill="#6D6DAA"></path>
            <path d="M47.6,85.8 L47.5,85.8 C47,85.7 46.6,85.2 46.6,84.7 C46.6,84.7 46.6,84.7 46.6,84.7 L46.9,82.1 C47,81.5 47.5,81.2 48,81.2 C48.6,81.3 48.9,81.8 48.9,82.3 L48.9,82.3 L48.6,84.9 C48.5,85.4 48.1,85.8 47.6,85.8 Z" id="Path" fill="#6D6DAA"></path>
            <path d="M66.4,85.8 C65.9,85.8 65.5,85.4 65.4,84.9 L65.2,82.3 C65.1,81.7 65.6,81.3 66.1,81.2 C66.6,81.1 67.1,81.6 67.2,82.1 L67.4,84.7 C67.5,85.2 67.1,85.7 66.4,85.8 L66.4,85.8 Z" id="Path" fill="#6D6DAA"></path>
            <path d="M70.4,85.8 C69.9,85.8 69.5,85.4 69.4,84.9 L69.2,82.3 C69.1,81.7 69.6,81.3 70.1,81.2 C70.6,81.1 71.1,81.6 71.2,82.1 L71.4,84.7 C71.5,85.2 71.1,85.7 70.4,85.8 L70.4,85.8 Z" id="Path" fill="#6D6DAA"></path>
            <circle id="Oval" fill="#7985A5" cx="45" cy="22.5" r="5"></circle>
            <path d="M45,28.5 C41.7,28.5 39,25.8 39,22.5 C39,19.2 41.7,16.5 45,16.5 C48.3,16.5 51,19.2 51,22.5 C51,25.8 48.3,28.5 45,28.5 Z M45,18.5 C42.8,18.5 41,20.3 41,22.5 C41,24.7 42.8,26.5 45,26.5 C47.2,26.5 49,24.7 49,22.5 C49,20.3 47.2,18.5 45,18.5 Z" id="Shape" fill="#6D6DAA"></path>
            <circle id="Oval" fill="#7985A5" cx="68" cy="22.5" r="5"></circle>
            <path d="M68,28.5 C64.7,28.5 62,25.8 62,22.5 C62,19.2 64.7,16.5 68,16.5 C71.3,16.5 74,19.2 74,22.5 C74,25.8 71.3,28.5 68,28.5 Z M68,18.5 C65.8,18.5 64,20.3 64,22.5 C64,24.7 65.8,26.5 68,26.5 C70.2,26.5 72,24.7 72,22.5 C72,20.3 70.2,18.5 68,18.5 Z" id="Shape" fill="#6D6DAA"></path>
            <circle id="Oval" fill="#FFFFFF" cx="67.4" cy="21.3" r="2.3"></circle>
            <circle id="Oval" fill="#FFFFFF" cx="70.9" cy="24.7" r="1.1"></circle>
            <circle id="Oval" fill="#FFFFFF" cx="68.6" cy="25.9" r="1.1"></circle>
            <circle id="Oval" fill="#FFFFFF" cx="44.4" cy="21.3" r="2.3"></circle>
            <circle id="Oval" fill="#FFFFFF" cx="47.9" cy="24.7" r="1.1"></circle>
            <circle id="Oval" fill="#FFFFFF" cx="45.6" cy="25.9" r="1.1"></circle>
        </g>
    </g>
</svg>